<svg width="512" height="512" viewBox="0 0 512 512" xmlns="http://www.w3.org/2000/svg">
  <defs>
    <linearGradient id="goldDark" x1="0" y1="0" x2="0" y2="1">
      <stop offset="0%" stop-color="#F8DC8A"/>
      <stop offset="50%" stop-color="#D4A437"/>
      <stop offset="100%" stop-color="#9C7720"/>
    </linearGradient>
  </defs>

  <rect width="512" height="512" rx="92" fill="#0A0A0A"/>

  <g transform="translate(256, 256) scale(2.3)">
    <circle r="86" fill="none" stroke="url(#goldDark)" stroke-width="0.8"/>
    <circle r="80" fill="none" stroke="url(#goldDark)" stroke-width="2"/>
    <circle r="74" fill="none" stroke="url(#goldDark)" stroke-width="0.5"/>
    <g fill="url(#goldDark)">
      <circle cx="0" cy="-80" r="2.5"/>
      <circle cx="0" cy="80" r="2.5"/>
      <circle cx="-80" cy="0" r="2.5"/>
      <circle cx="80" cy="0" r="2.5"/>
      <circle cx="57" cy="-57" r="1.5"/>
      <circle cx="-57" cy="-57" r="1.5"/>
      <circle cx="57" cy="57" r="1.5"/>
      <circle cx="-57" cy="57" r="1.5"/>
    </g>
    <path id="idTop" d="M -66 0 A 66 66 0 0 1 66 0" fill="none"/>
    <text font-family="Georgia,serif" font-size="11" font-weight="600" fill="#E8E8E8" letter-spacing="0.44em">
      <textPath href="#idTop" startOffset="50%" text-anchor="middle">· BEGGAR CLUB ·</textPath>
    </text>
    <path id="idBot" d="M -66 8 A 66 66 0 0 0 66 8" fill="none"/>
    <text font-family="Georgia,serif" font-size="9" font-weight="500" fill="#C8C8C8" letter-spacing="0.32em">
      <textPath href="#idBot" startOffset="50%" text-anchor="middle">MEMBRORUM SOCIETAS</textPath>
    </text>
    <path d="M -36 -44 L 36 -44 L 36 18 Q 36 44 0 60 Q -36 44 -36 18 Z" fill="#000000" stroke="url(#goldDark)" stroke-width="1.6"/>
    <path d="M -30 -38 L 30 -38 L 30 16 Q 30 40 0 52 Q -30 40 -30 16 Z" fill="none" stroke="url(#goldDark)" stroke-width="0.5"/>
    <text y="22" font-family="'UnifrakturMaguntia','Cloister Black','Old English Text MT',serif" font-size="66" fill="url(#goldDark)" text-anchor="middle">B</text>
  </g>
</svg>
