<svg width="720" height="180" viewBox="0 0 720 180" xmlns="http://www.w3.org/2000/svg">
  <defs>
    <linearGradient id="gold" x1="0" y1="0" x2="0" y2="1">
      <stop offset="0%" stop-color="#F4D374"/>
      <stop offset="40%" stop-color="#D4A437"/>
      <stop offset="100%" stop-color="#8E6A12"/>
    </linearGradient>
    <linearGradient id="goldShine" x1="0" y1="0" x2="1" y2="1">
      <stop offset="0%" stop-color="#FFE89A"/>
      <stop offset="50%" stop-color="#D4A437"/>
      <stop offset="100%" stop-color="#7A5A0F"/>
    </linearGradient>
  </defs>

  <rect width="720" height="180" fill="#F7F8F9"/>
  <line x1="40" y1="16" x2="680" y2="16" stroke="#1A1A1A" stroke-width="0.4"/>
  <line x1="40" y1="164" x2="680" y2="164" stroke="#1A1A1A" stroke-width="0.4"/>

  <!-- Crest on left -->
  <g transform="translate(110, 90) scale(0.5)">
    <circle r="86" fill="none" stroke="url(#gold)" stroke-width="0.8"/>
    <circle r="80" fill="none" stroke="url(#gold)" stroke-width="2"/>
    <circle r="74" fill="none" stroke="url(#gold)" stroke-width="0.5"/>
    <g fill="url(#gold)">
      <circle cx="0" cy="-80" r="2.5"/>
      <circle cx="0" cy="80" r="2.5"/>
      <circle cx="-80" cy="0" r="2.5"/>
      <circle cx="80" cy="0" r="2.5"/>
      <circle cx="57" cy="-57" r="1.5"/>
      <circle cx="-57" cy="-57" r="1.5"/>
      <circle cx="57" cy="57" r="1.5"/>
      <circle cx="-57" cy="57" r="1.5"/>
    </g>
    <path id="hTop" d="M -66 0 A 66 66 0 0 1 66 0" fill="none"/>
    <text font-family="Georgia,serif" font-size="11" font-weight="600" fill="#1A1A1A" letter-spacing="0.44em">
      <textPath href="#hTop" startOffset="50%" text-anchor="middle">· BEGGAR CLUB ·</textPath>
    </text>
    <path id="hBot" d="M -66 8 A 66 66 0 0 0 66 8" fill="none"/>
    <text font-family="Georgia,serif" font-size="9" font-weight="500" fill="#1A1A1A" letter-spacing="0.32em">
      <textPath href="#hBot" startOffset="50%" text-anchor="middle">MEMBRORUM SOCIETAS</textPath>
    </text>
    <path d="M -36 -44 L 36 -44 L 36 18 Q 36 44 0 60 Q -36 44 -36 18 Z" fill="#1A1A1A" stroke="url(#gold)" stroke-width="1.6"/>
    <path d="M -30 -38 L 30 -38 L 30 16 Q 30 40 0 52 Q -30 40 -30 16 Z" fill="none" stroke="url(#gold)" stroke-width="0.5"/>
    <text y="22" font-family="'UnifrakturMaguntia','Cloister Black','Old English Text MT',serif" font-size="66" fill="url(#goldShine)" text-anchor="middle">B</text>
  </g>

  <text x="200" y="102" font-family="'Apple Chancery','Snell Roundhand','Edwardian Script ITC','Garamond Italic','Brush Script MT',cursive" font-size="58" font-style="italic" fill="#1A1A1A">Beggar<tspan fill="url(#gold)">Club</tspan></text>

  <line x1="200" y1="122" x2="380" y2="122" stroke="#1A1A1A" stroke-width="0.4"/>
  <path d="M 390 118 L 396 122 L 390 126 L 384 122 Z" fill="url(#gold)"/>
  <line x1="402" y1="122" x2="580" y2="122" stroke="#1A1A1A" stroke-width="0.4"/>

  <text x="200" y="144" font-family="system-ui,sans-serif" font-size="9" fill="#666" letter-spacing="0.5em">A PRIVATE SOCIETY · BY INVITATION ONLY</text>
</svg>
