<svg width="512" height="512" viewBox="0 0 512 512" xmlns="http://www.w3.org/2000/svg">
  <defs>
    <linearGradient id="goldDark" x1="0" y1="0" x2="0" y2="1">
      <stop offset="0%" stop-color="#F8DC8A"/>
      <stop offset="50%" stop-color="#D4A437"/>
      <stop offset="100%" stop-color="#9C7720"/>
    </linearGradient>
  </defs>

  <circle cx="256" cy="256" r="256" fill="#0A0A0A"/>
  <circle cx="256" cy="256" r="248" fill="none" stroke="url(#goldDark)" stroke-width="3"/>

  <g transform="translate(256, 256) scale(2.6)">
    <circle r="76" fill="none" stroke="url(#goldDark)" stroke-width="0.8"/>
    <circle r="70" fill="none" stroke="url(#goldDark)" stroke-width="1.8"/>
    <circle r="64" fill="none" stroke="url(#goldDark)" stroke-width="0.4"/>

    <g fill="url(#goldDark)">
      <circle cx="0" cy="-70" r="2.5"/>
      <circle cx="0" cy="70" r="2.5"/>
      <circle cx="-70" cy="0" r="2.5"/>
      <circle cx="70" cy="0" r="2.5"/>
      <circle cx="50" cy="-50" r="1.5"/>
      <circle cx="-50" cy="-50" r="1.5"/>
      <circle cx="50" cy="50" r="1.5"/>
      <circle cx="-50" cy="50" r="1.5"/>
    </g>

    <path d="M -42 -50 L 42 -50 L 42 22 Q 42 50 0 70 Q -42 50 -42 22 Z" fill="#000000" stroke="url(#goldDark)" stroke-width="1.8"/>
    <path d="M -36 -44 L 36 -44 L 36 20 Q 36 46 0 62 Q -36 46 -36 20 Z" fill="none" stroke="url(#goldDark)" stroke-width="0.5"/>

    <text y="26" font-family="'UnifrakturMaguntia','Cloister Black','Old English Text MT',serif" font-size="76" fill="url(#goldDark)" text-anchor="middle">B</text>
  </g>
</svg>
