<svg width="720" height="600" viewBox="0 0 720 600" xmlns="http://www.w3.org/2000/svg">
  <defs>
    <linearGradient id="gold" x1="0" y1="0" x2="0" y2="1">
      <stop offset="0%" stop-color="#F4D374"/>
      <stop offset="40%" stop-color="#D4A437"/>
      <stop offset="100%" stop-color="#8E6A12"/>
    </linearGradient>
    <linearGradient id="goldShine" x1="0" y1="0" x2="1" y2="1">
      <stop offset="0%" stop-color="#FFE89A"/>
      <stop offset="50%" stop-color="#D4A437"/>
      <stop offset="100%" stop-color="#7A5A0F"/>
    </linearGradient>
  </defs>

  <rect x="0" y="0" width="720" height="600" fill="#F7F8F9"/>

  <rect x="40" y="40" width="640" height="520" fill="none" stroke="#1A1A1A" stroke-width="0.8"/>
  <rect x="46" y="46" width="628" height="508" fill="none" stroke="#1A1A1A" stroke-width="0.4"/>

  <text x="360" y="92" font-family="Georgia,serif" font-size="9" fill="#666" letter-spacing="0.5em" text-anchor="middle" font-style="italic">— charter members —</text>

  <g transform="translate(360, 118)">
    <line x1="-200" x2="-22" stroke="#1A1A1A" stroke-width="0.5"/>
    <line x1="22" x2="200" stroke="#1A1A1A" stroke-width="0.5"/>
    <circle cx="-16" cy="0" r="1.4" fill="#1A1A1A"/>
    <circle cx="16" cy="0" r="1.4" fill="#1A1A1A"/>
    <path d="M 0 -6 L 8 0 L 0 6 L -8 0 Z" fill="url(#gold)" stroke="#8E6A12" stroke-width="0.4"/>
  </g>

  <g transform="translate(360, 226)">
    <circle r="86" fill="none" stroke="url(#gold)" stroke-width="0.6"/>
    <circle r="80" fill="none" stroke="url(#gold)" stroke-width="1.8"/>
    <circle r="74" fill="none" stroke="url(#gold)" stroke-width="0.4"/>

    <g fill="url(#gold)">
      <circle cx="0" cy="-80" r="2.2"/>
      <circle cx="0" cy="80" r="2.2"/>
      <circle cx="-80" cy="0" r="2.2"/>
      <circle cx="80" cy="0" r="2.2"/>
      <circle cx="57" cy="-57" r="1.3"/>
      <circle cx="-57" cy="-57" r="1.3"/>
      <circle cx="57" cy="57" r="1.3"/>
      <circle cx="-57" cy="57" r="1.3"/>
    </g>

    <path id="crestTop" d="M -66 0 A 66 66 0 0 1 66 0" fill="none"/>
    <text font-family="Georgia,serif" font-size="10" font-weight="600" fill="#1A1A1A" letter-spacing="0.44em">
      <textPath href="#crestTop" startOffset="50%" text-anchor="middle">· BEGGAR CLUB ·</textPath>
    </text>

    <path id="crestBot" d="M -66 8 A 66 66 0 0 0 66 8" fill="none"/>
    <text font-family="Georgia,serif" font-size="8" font-weight="500" fill="#1A1A1A" letter-spacing="0.32em">
      <textPath href="#crestBot" startOffset="50%" text-anchor="middle">MEMBRORUM SOCIETAS</textPath>
    </text>

    <path d="M -36 -44 L 36 -44 L 36 18 Q 36 44 0 60 Q -36 44 -36 18 Z"
          fill="#1A1A1A" stroke="url(#gold)" stroke-width="1.4"/>
    <path d="M -30 -38 L 30 -38 L 30 16 Q 30 40 0 52 Q -30 40 -30 16 Z"
          fill="none" stroke="url(#gold)" stroke-width="0.4"/>

    <text y="22" font-family="'UnifrakturMaguntia','Cloister Black','Old English Text MT','Blackletter686 BT',serif" font-size="66" fill="url(#goldShine)" text-anchor="middle">B</text>
  </g>

  <text x="360" y="382" font-family="'Apple Chancery','Snell Roundhand','Edwardian Script ITC','Garamond Italic','Brush Script MT',cursive" font-size="76" font-style="italic" fill="#1A1A1A" text-anchor="middle" letter-spacing="0">Beggar<tspan fill="url(#gold)">Club</tspan></text>

  <g transform="translate(360, 422)">
    <line x1="-200" x2="-30" stroke="#1A1A1A" stroke-width="0.6"/>
    <line x1="-200" x2="-30" y1="6" y2="6" stroke="#1A1A1A" stroke-width="0.3"/>
    <line x1="30" x2="200" stroke="#1A1A1A" stroke-width="0.6"/>
    <line x1="30" x2="200" y1="6" y2="6" stroke="#1A1A1A" stroke-width="0.3"/>
    <circle cx="-22" cy="3" r="1.5" fill="#1A1A1A"/>
    <circle cx="22" cy="3" r="1.5" fill="#1A1A1A"/>
    <path d="M 0 -8 L 10 0 L 0 8 L -10 0 Z" fill="url(#gold)" stroke="#8E6A12" stroke-width="0.5"/>
  </g>

  <text x="360" y="462" font-family="Georgia,serif" font-size="15" fill="#444" font-style="italic" text-anchor="middle" letter-spacing="0.06em">— Empty Pockets, Full Hearts —</text>
  <text x="360" y="484" font-family="Georgia,serif" font-size="10" fill="#888" font-style="italic" text-anchor="middle" letter-spacing="0.12em">no fortune required</text>

  <g transform="translate(360, 514)">
    <line x1="-200" x2="-48" stroke="#1A1A1A" stroke-width="0.4"/>
    <line x1="-32" x2="-8" stroke="#1A1A1A" stroke-width="0.4"/>
    <line x1="8" x2="32" stroke="#1A1A1A" stroke-width="0.4"/>
    <line x1="48" x2="200" stroke="#1A1A1A" stroke-width="0.4"/>
    <g fill="url(#gold)">
      <path d="M -40 -4 L -38 -1 L -35 -1 L -37 1 L -36 4 L -40 2 L -44 4 L -43 1 L -45 -1 L -42 -1 Z"/>
      <path d="M 0 -4 L 2 -1 L 5 -1 L 3 1 L 4 4 L 0 2 L -4 4 L -3 1 L -5 -1 L -2 -1 Z"/>
      <path d="M 40 -4 L 42 -1 L 45 -1 L 43 1 L 44 4 L 40 2 L 36 4 L 37 1 L 35 -1 L 38 -1 Z"/>
    </g>
  </g>

  <text x="360" y="540" font-family="system-ui,sans-serif" font-size="9" fill="#1A1A1A" letter-spacing="0.5em" text-anchor="middle">A PRIVATE SOCIETY · BY INVITATION ONLY</text>

</svg>
